# xmcd
#
# Track frame offsets:
#	150
#	17097
#	36610
#	54365
#	75830
#	96620
#	114642
#	135115
#	155575
#	174517
#	195357
#	217170
#	245475
#	265510
#	276825
#
# Disc length: 3873 seconds
#
# Revision: 1
# Processed by: cddbd v1.5.2PL0 Copyright (c) Steve Scherf et al.
# Submitted via: audiograbber 1.83.01
#
DISCID=ca0f1f0f
DTITLE=Various Artist - MM6173
DYEAR=1900
DGENRE=Karaoke
TTITLE0=Hootie and The Blowfish - Tucker's Town
TTITLE1=Arena, Tina - Show Me Heaven
TTITLE2=Cranberries, The - Free To Decide
TTITLE3=Connick, Harry Jr. - Hear Me In The Harmony
TTITLE4=Turner, Tina - Missing You
TTITLE5=Vandross, Luther - Your Secret Love
TTITLE6=Primitive Radio Gods - Standing Outside A Broken Phone Booth
TTITLE7=Mayfield, Curtis - New World Order
TTITLE8=Gill, Johnny - Let's Get The Mood Right
TTITLE9=Braxton, Toni - Unbreak My Heart
TTITLE10=Houston, Whitney - Why Does It Hurt So Bad
TTITLE11=Adams, Bryan - Let's Make A Night To Remember
TTITLE12=Mellencamp, John Cougar - Key West Intermezzo (I Saw You First)
TTITLE13=Cranberries, The - Salvation
TTITLE14=Rimes, LeAnn - Blue
EXTD=
EXTT0=
EXTT1=
EXTT2=
EXTT3=
EXTT4=
EXTT5=
EXTT6=
EXTT7=
EXTT8=
EXTT9=
EXTT10=
EXTT11=
EXTT12=
EXTT13=
EXTT14=
PLAYORDER=
